<svg xmlns="http://www.w3.org/2000/svg" width="26" height="28" viewBox="0 0 26 28">
    <path fill="#125195" fill-rule="evenodd" d="M21.832 15.068c-.05-.029-.112-.064-.185-.108-.137.07-.297.072-.452.055-.229-.023-.433.026-.631.137-.06-.04-.12-.08-.195-.132-.353-.006-.707.081-1.064.147-.236-.1-.49-.095-.733-.073-.292.026-.548-.034-.805-.2-.152.069-.31.138-.465.21-.025.012-.048.047-.07.047-.264-.006-.466.157-.697.235-.134.046-.284.048-.439.072-.137.054-.165.281-.369.24l-.25.389-.482.157c-.026.155-.052.292-.1.425-.04.116-.023.257-.006.385.023.173-.085.321-.056.503.021.143-.055.304-.1.454-.047.162-.027.313.054.442-.075.321-.223.615-.113.938l-.102.138c-.045.494-.042.517.135 1.199-.036.13-.157.265-.077.432l-.12.322c.026.055.05.106.08.165l-.03.106.144.193-.151.213.07.133c0 .03.012.066-.002.086-.113.167-.092.36-.104.543-.014.185.034.372-.04.555-.017.045.019.11.026.165.033.274.057.546-.064.814l.07.2c-.005.028-.01.055-.019.083-.044.152-.095.301-.133.455-.048.198-.101.385-.266.53-.07.063-.1.172-.145.252.027.065.046.118.067.168l-.108.385c.017.176.161.288.085.49-.035.042-.126.111-.154.2-.035.108-.052.213-.131.31-.057.072-.061.185-.09.282-.09.066-.19.046-.323.015l-.175-.314.143-.224c-.095-.223-.232-.44-.08-.688-.051-.033-.098-.062-.166-.102l.2-.27v-.242l-.345-.833v-.658c-.068-.134-.126-.25-.18-.353-.018-.154.146-.28.02-.439l-.258.058-.028-.256.178-.201c.031-.265-.084-.5-.165-.75.107-.184.117-.376.004-.566l.174-.546-.172-.238c-.067-.196.072-.334.119-.467-.021-.148-.033-.273-.057-.397-.027-.126-.073-.246-.097-.37-.022-.113-.042-.229-.033-.34.011-.123-.118-.247.006-.364-.022-.1-.046-.194-.063-.291-.018-.098-.039-.197-.042-.295-.003-.097.017-.194.018-.291.003-.174-.033-.338-.118-.491-.16-.29-.317-.581-.46-.845l-.253-.172.16-.117c.007-.228-.168-.382-.266-.565-.109-.207-.326-.277-.527-.349l-.131-.227c-.105-.02-.206-.034-.302-.063-.082-.025-.16-.068-.237-.102-.234.068-.46.108-.689-.002-.049-.024-.114-.018-.172-.014-.206.01-.407-.031-.608-.039-.197-.008-.403.036-.608.028-.116-.005-.233-.01-.35-.003-.205.013-.406-.003-.603-.087-.125.088-.253.128-.41.09-.461-.109-.608-.101-1.031.014l-.247-.096c-.038.018-.077.052-.115.052-.142 0-.284-.01-.426-.018-.233-.015-.468-.048-.696.025-.1.032-.2-.065-.294.013-.215-.086-.427 0-.64.008-.117.004-.235.002-.35.015-.085.01-.167.036-.28.063-.155-.016-.342-.04-.53-.055s-.376-.022-.562-.032l-.101-.218-.538-.046-.159-.132-.221.041-.016-.356c-.098-.07-.2-.146-.324-.234.003-.216-.205-.391-.188-.64l.417-.287.168.053c.302-.136.642-.075.974-.083.335-.008.674-.027.988.094l.543-.16.571.1c.07-.019.143-.032.21-.058.134-.05.255-.15.413-.082.138-.056.276-.055.428-.046.32.02.644-.002.966-.005.087 0 .183-.016.258.014.102.043.188.036.293.012.09-.022.198.034.29.017.138-.025.28-.02.418-.05.125-.025.256-.009.383-.062.076-.03.174-.014.26-.015.162-.002.324-.001.506-.001.314-.208.689-.251 1.085-.274l.11-.13c.112-.073.247.11.364-.014.113.027.227.05.338-.015.153.069.306-.016.454-.008.297.016.546-.086.76-.213l.285.064.13-.334c.084-.058.168-.115.252-.175.013-.04.034-.081.036-.123.004-.099.002-.2.002-.275-.09-.12-.323-.097-.24-.315l.14.059c.101-.01.213-.012.323-.031.035-.007.063-.055.1-.091-.029-.096-.067-.188-.08-.285-.01-.068-.009-.155.025-.211.143-.24.077-.472-.018-.719l.08-.19c-.083-.262-.137-.524-.01-.794.035-.074.02-.171.025-.257.015-.228-.014-.457.067-.683.03-.083-.023-.195-.043-.333l.15-.516c-.046-.135-.103-.283-.147-.434-.047-.16.004-.312.074-.45-.036-.095-.068-.174-.1-.265.153-.315.187-.654.159-1.007-.016-.201-.001-.405 0-.608 0-.173-.013-.343.084-.505.032-.054.013-.14.018-.214l-.278-.37c-.004-.211.185-.27.258-.403.125-.24.095-.501.105-.756.006-.158.005-.318.034-.472.018-.1.038-.19.02-.295-.012-.076.031-.162.048-.239-.001-.16-.12-.287-.072-.465.038-.141-.012-.306-.021-.44l.28-.48c.153-.046.195.092.276.108l.192-.045.472.486c-.032.243.07.485.109.764l.22.235c.008.054.023.111.025.167.005.144.004.289.007.433.003.126.09.248.027.38.09.192.031.4.062.599.03.182.054.366.07.55.014.173.009.345.077.51.02.047.001.112-.008.168-.042.245-.008.501-.13.735-.029.057-.005.142-.005.214l.227.28c.024.117-.058.114-.103.158-.072.15-.03.296.063.43l-.074.19.112.162c-.052.134-.104.266-.159.412.134.21.107.444.078.668-.023.187.024.364.025.545 0 .052.044.105.071.162-.023.078-.085.168-.066.238.06.227-.02.449-.001.674.018.214-.005.432.008.648.015.257.052.513.07.77.006.068-.017.139-.037.27.063.185.143.429.223.672l.395.226c.088.244.07.542.356.733.342-.017.697.05 1.022.224l.317-.179c.257.092.54.089.785.227.35-.031.703.05 1.049-.055.216.1.456.034.687.107.274.088.574.092.886-.028.14.03.304.103.48.03.23-.094.458-.054.698.027.21-.092.434-.144.647.03.217-.023.442.038.622-.099l.175.05.362-.099.804.07c.148.129.34.253.593.26.075.001.147.086.233.14.174-.05.352-.132.587-.062l.293.26.01.174-.151.212c-.007.02-.015.034-.015.048-.006.14.05.3-.068.412-.121.114-.082.27-.123.4l-.276-.03-.275.136c-.15-.108-.308.088-.441-.032l-.105.11c-.178.065-.346.007-.49-.047-.367.076-.705.177-1.058.157-.098-.006-.158.057-.218.1-.222-.13-.43-.105-.664-.026z"/>
</svg>
